<svg id="visual" viewBox="0 0 900 600" width="900" height="600" xmlns="http://www.w3.org/2000/svg" xmlns:xlink="http://www.w3.org/1999/xlink" version="1.1"><rect x="0" y="0" width="900" height="600" fill="#191919"></rect><defs><linearGradient id="grad1_0" x1="33.3%" y1="0%" x2="100%" y2="100%"><stop offset="20%" stop-color="#191919" stop-opacity="1"></stop><stop offset="80%" stop-color="#191919" stop-opacity="1"></stop></linearGradient></defs><defs><linearGradient id="grad2_0" x1="0%" y1="0%" x2="66.7%" y2="100%"><stop offset="20%" stop-color="#191919" stop-opacity="1"></stop><stop offset="80%" stop-color="#191919" stop-opacity="1"></stop></linearGradient></defs><g transform="translate(900, 0)"><path d="M0 351.5C-42.4 339.6 -84.8 327.7 -129.7 313.2C-174.6 298.7 -222 281.7 -248.6 248.6C-275.2 215.4 -281 166.2 -294.7 122.1C-308.4 78 -330 39 -351.5 0L0 0Z" fill="#ffffff"></path></g><g transform="translate(0, 600)"><path d="M0 -351.5C47.3 -348.1 94.5 -344.6 134.5 -324.8C174.5 -304.9 207.2 -268.7 232.6 -232.6C258 -196.6 276.1 -160.8 294.7 -122.1C313.3 -83.3 332.4 -41.7 351.5 0L0 0Z" fill="#ffffff"></path></g></svg>