<svg id="visual" viewBox="0 0 900 600" width="900" height="600" xmlns="http://www.w3.org/2000/svg" xmlns:xlink="http://www.w3.org/1999/xlink" version="1.1"><rect x="0" y="0" width="900" height="600" fill="#ffffff"></rect><defs><linearGradient id="grad1_0" x1="33.3%" y1="0%" x2="100%" y2="100%"><stop offset="20%" stop-color="#ffffff" stop-opacity="1"></stop><stop offset="80%" stop-color="#ffffff" stop-opacity="1"></stop></linearGradient></defs><defs><linearGradient id="grad2_0" x1="0%" y1="0%" x2="66.7%" y2="100%"><stop offset="20%" stop-color="#ffffff" stop-opacity="1"></stop><stop offset="80%" stop-color="#ffffff" stop-opacity="1"></stop></linearGradient></defs><g transform="translate(900, 0)"><path d="M0 432.7C-46.5 430.4 -93 428.2 -133.7 411.5C-174.4 394.8 -209.3 363.6 -242.8 334.1C-276.2 304.7 -308.1 277 -335.7 243.9C-363.4 210.8 -386.8 172.3 -402.3 130.7C-417.7 89.2 -425.2 44.6 -432.7 0L0 0Z" fill="#fcf5ed"></path></g><g transform="translate(0, 600)"><path d="M0 -432.7C44.2 -421.8 88.3 -411 128.2 -394.7C168.2 -378.3 203.8 -356.5 242.8 -334.1C281.7 -311.8 323.8 -288.9 350 -254.3C376.2 -219.8 386.4 -173.5 397.5 -129.2C408.7 -84.8 420.7 -42.4 432.7 0L0 0Z" fill="#fcf5ed"></path></g></svg>