<svg id="visual" viewBox="0 0 1920 1080" width="1920" height="1080" xmlns="http://www.w3.org/2000/svg" xmlns:xlink="http://www.w3.org/1999/xlink" version="1.1"><path d="M0 902L45.7 904C91.3 906 182.7 910 274.2 912.3C365.7 914.7 457.3 915.3 548.8 904C640.3 892.7 731.7 869.3 823 862.8C914.3 856.3 1005.7 866.7 1097 881.7C1188.3 896.7 1279.7 916.3 1371.2 908.7C1462.7 901 1554.3 866 1645.8 860.3C1737.3 854.7 1828.7 878.3 1874.3 890.2L1920 902L1920 1081L1874.3 1081C1828.7 1081 1737.3 1081 1645.8 1081C1554.3 1081 1462.7 1081 1371.2 1081C1279.7 1081 1188.3 1081 1097 1081C1005.7 1081 914.3 1081 823 1081C731.7 1081 640.3 1081 548.8 1081C457.3 1081 365.7 1081 274.2 1081C182.7 1081 91.3 1081 45.7 1081L0 1081Z" fill="#000000" stroke-linecap="round" stroke-linejoin="miter"></path></svg>