<svg id="visual" viewBox="0 0 900 600" width="900" height="600" xmlns="http://www.w3.org/2000/svg" xmlns:xlink="http://www.w3.org/1999/xlink" version="1.1"><rect x="0" y="0" width="900" height="600" fill="#FFFFFF"></rect><path d="M0 416L25 403.2C50 390.3 100 364.7 150 361.3C200 358 250 377 300 390.2C350 403.3 400 410.7 450 402.8C500 395 550 372 600 359.7C650 347.3 700 345.7 750 353.3C800 361 850 378 875 386.5L900 395L900 601L875 601C850 601 800 601 750 601C700 601 650 601 600 601C550 601 500 601 450 601C400 601 350 601 300 601C250 601 200 601 150 601C100 601 50 601 25 601L0 601Z" fill="#191919" stroke-linecap="round" stroke-linejoin="miter"></path></svg>