<svg id="visual" viewBox="0 0 900 600" width="900" height="600" xmlns="http://www.w3.org/2000/svg" xmlns:xlink="http://www.w3.org/1999/xlink" version="1.1"><path d="M0 385L18.8 387.2C37.7 389.3 75.3 393.7 112.8 397.7C150.3 401.7 187.7 405.3 225.2 401.5C262.7 397.7 300.3 386.3 337.8 379.3C375.3 372.3 412.7 369.7 450.2 370.2C487.7 370.7 525.3 374.3 562.8 383.5C600.3 392.7 637.7 407.3 675.2 415.5C712.7 423.7 750.3 425.3 787.8 416.2C825.3 407 862.7 387 881.3 377L900 367L900 601L881.3 601C862.7 601 825.3 601 787.8 601C750.3 601 712.7 601 675.2 601C637.7 601 600.3 601 562.8 601C525.3 601 487.7 601 450.2 601C412.7 601 375.3 601 337.8 601C300.3 601 262.7 601 225.2 601C187.7 601 150.3 601 112.8 601C75.3 601 37.7 601 18.8 601L0 601Z" fill="#000000" stroke-linecap="round" stroke-linejoin="miter"></path></svg>